<svg id="49817944-9e90-4da8-9e52-b689c3a99233" data-name="Layer 1" xmlns="http://www.w3.org/2000/svg" viewBox="0 0 74.91 60.26"><defs><style>.\34 4979de4-9ba9-44e9-9b47-6b6f18da92a1,.\35 29fefac-4a1c-4628-b492-018eb96fdf4e{fill:none;stroke:#4a4a4a;}.a531d454-a9ef-46f5-9a31-6174d33ea6c6{fill:#fff;}.\35 29fefac-4a1c-4628-b492-018eb96fdf4e{stroke-width:0.5px;}</style></defs><title>Desktop Icon</title><rect id="2760e222-099a-4507-8e40-3299711a7ab5" data-name="path-1" class="44979de4-9ba9-44e9-9b47-6b6f18da92a1" x="34.81" y="48.76" width="5.05" height="7.58"/><g id="db50638d-d2a9-45f8-b8d8-857ca8a5e950" data-name="mask-2"><rect id="4faa8218-a50c-4251-a030-5130071bb72c" data-name="path-1" class="a531d454-a9ef-46f5-9a31-6174d33ea6c6" x="34.81" y="48.2" width="5.05" height="8.62"/></g><path id="3e27300c-b6ff-4c59-b9c9-dfe84ba82d11" data-name="Base" class="529fefac-4a1c-4628-b492-018eb96fdf4e" d="M19.76,56.82a2.64,2.64,0,0,0-2.24,1.46l-.11.26A1,1,0,0,0,18.35,60H56.44a.93.93,0,0,0,.91-1.44l-.14-.3a2.74,2.74,0,0,0-2.28-1.44Z" transform="translate(0 0)"/><path id="afdb4ecc-05a0-40d3-bbec-cabfe1ffd19b" data-name="Screen" class="529fefac-4a1c-4628-b492-018eb96fdf4e" d="M3.26.25H71.65a3,3,0,0,1,3,3v42a3,3,0,0,1-3,3H3.26a3,3,0,0,1-3-3v-42A3,3,0,0,1,3.26.25ZM4.47,2.63a1.9,1.9,0,0,0-1.9,1.89V44a1.9,1.9,0,0,0,1.9,1.89h66A1.9,1.9,0,0,0,72.38,44V4.52a1.9,1.9,0,0,0-1.9-1.89Z" transform="translate(0 0)"/></svg>